HIERARCHY
ROOT Hips
{
	OFFSET 0.00000 0.00000 0.00000
	CHANNELS 6 Xposition Yposition Zposition Zrotation Yrotation Xrotation 
	JOINT LHipJoint
	{
		OFFSET 0 0 0
		CHANNELS 3 Zrotation Yrotation Xrotation
		JOINT LeftHip
		{
			OFFSET 1.53139 -1.83434 0.76626
			CHANNELS 3 Zrotation Yrotation Xrotation
			JOINT LeftKnee
			{
				OFFSET 2.56112 -7.03663 0.00000
				CHANNELS 3 Zrotation Yrotation Xrotation
				JOINT LeftAnkle
				{
					OFFSET 2.59983 -7.14299 0.00000
					CHANNELS 3 Zrotation Yrotation Xrotation
					JOINT LeftToe
					{
						OFFSET 0.13742 -0.37757 2.00054
						CHANNELS 3 Zrotation Yrotation Xrotation
						End Site
						{
							OFFSET 0.00000 -0.00000 1.02897
						}
					}
				}
			}
		}
	}
	JOINT RHipJoint
	{
		OFFSET 0 0 0
		CHANNELS 3 Zrotation Yrotation Xrotation
		JOINT RightHip
		{
			OFFSET -1.40122 -1.83435 0.76627
			CHANNELS 3 Zrotation Yrotation Xrotation
			JOINT RightKnee
			{
				OFFSET -2.54052 -6.98003 0.00000
				CHANNELS 3 Zrotation Yrotation Xrotation
				JOINT RightAnkle
				{
					OFFSET -2.63179 -7.23079 0.00000
					CHANNELS 3 Zrotation Yrotation Xrotation
					JOINT RightToe
					{
						OFFSET -0.24131 -0.66299 2.03908
						CHANNELS 3 Zrotation Yrotation Xrotation
						End Site
						{
							OFFSET -0.00000 -0.00000 1.07391
						}
					}
				}
			}
		}
	}
	JOINT lowerback
	{
		OFFSET 0 0 0
		CHANNELS 3 Zrotation Yrotation Xrotation
		JOINT Chest
		{
			OFFSET 0.01174 2.10302 -0.29778
			CHANNELS 3 Zrotation Yrotation Xrotation
			JOINT Chest2
			{
				OFFSET 0.00772 2.13227 -0.01247
				CHANNELS 3 Zrotation Yrotation Xrotation
				JOINT lowerneck
				{
					OFFSET 0 0 0
					CHANNELS 3 Zrotation Yrotation Xrotation
					JOINT Neck
					{
						OFFSET -0.09219 1.60848 0.31481
						CHANNELS 3 Zrotation Yrotation Xrotation
						JOINT Head
						{
							OFFSET 0.13974 1.65456 -0.31134
							CHANNELS 3 Zrotation Yrotation Xrotation
							End Site
							{
								OFFSET 0.04742 1.69515 -0.14578
							}
						}
					}
				}
				JOINT LeftCollar
				{
					OFFSET 0 0 0
					CHANNELS 3 Zrotation Yrotation Xrotation
					JOINT LeftShoulder
					{
						OFFSET 3.24909 1.02882 -0.23993
CHANNELS 3 Zrotation Xrotation Yrotation
						JOINT LeftElbow
						{
OFFSET 0 -5.329550 -0.000000
CHANNELS 3 Zrotation Xrotation Yrotation
							JOINT LeftWrist
							{
OFFSET 0 -3.692320 -0.000000
CHANNELS 3 Zrotation Xrotation Yrotation
								JOINT lhand
								{
									OFFSET 0 0 0
CHANNELS 3 Zrotation Xrotation Yrotation
									JOINT LFingers
									{
OFFSET 0 -0.536600 -0.000000
CHANNELS 3 Zrotation Xrotation Yrotation
										End Site
										{
OFFSET 0 -0.432620 -0.000000
										}
									}
								}
								JOINT LThumb
								{
OFFSET 0 0.000000 0.000000
CHANNELS 3 Zrotation Xrotation Yrotation
									End Site
									{
OFFSET 0 -0.439220 0.439220
									}
								}
							}
						}
					}
				}
				JOINT RightCollar
				{
					OFFSET 0 0 0
					CHANNELS 3 Zrotation Yrotation Xrotation
					JOINT RightShoulder
					{
						OFFSET -3.21387 0.93002 -0.34594
CHANNELS 3 Zrotation Xrotation Yrotation
						JOINT RightElbow
						{
OFFSET 0 -5.234310 0.000000
CHANNELS 3 Zrotation Xrotation Yrotation
							JOINT RightWrist
							{
OFFSET 0 -3.553010 -0.000000
CHANNELS 3 Zrotation Xrotation Yrotation
								JOINT rhand
								{
									OFFSET 0 0 0
CHANNELS 3 Zrotation Xrotation Yrotation
									JOINT RFingers
									{
OFFSET 0 -0.772520 -0.000000
CHANNELS 3 Zrotation Xrotation Yrotation
										End Site
										{
OFFSET 0 -0.622830 -0.000000
										}
									}
								}
								JOINT RThumb
								{
OFFSET 0 0.000000 0.000000
CHANNELS 3 Zrotation Xrotation Yrotation
									End Site
									{
OFFSET 0 -0.632340 0.632340
									}
								}
							}
						}
					}
				}
			}
		}
	}
}
MOTION
Frames: 7
Frame Time: 0.008333333333333333
9.118331 17.844729 10.086799 368.636513 -51.875744 -9.714103 0.000000 0.000000 0.000000 -24.576989 -0.379737 4.086470 0.400912 4.065041 11.259717 -0.481032 -16.587612 -5.968344 0.428879 -4.200472 -11.641680 0.000000 0.000000 0.000000 14.797558 0.647011 -28.920181 -9.590712 -17.171386 58.108869 -0.190301 -1.461987 -8.904911 -0.152820 1.629400 -4.492917 -5.415125 0.741974 12.397193 -0.191787 0.194610 1.095132 2.823813 0.213155 -5.825605 -9.661938 -4.894744 -18.573602 8.430675 -6.713912 26.708264 3.743636 -2.977157 12.582682 0.000000 0.000000 0.000000 5.818230 2.100946 -24.507017 16.926895 -26.761104 4.054373 20.891107 13.500049 -24.858101 0.000000 0.000000 0.000000 -7.125000 0.000000 0.000000 -9.428443 56.107849 2.584625 0.000000 0.000000 0.000000 -2.553337 7.442477 17.716980 -18.240187 -28.463486 -4.663184 -16.552960 2.076978 -8.490886 0.000000 0.000000 0.000000 7.125000 0.000000 0.000000 7.450169 21.158672 4.294781
8.366847 17.834322 10.622335 368.785646 -53.748056 -8.727670 0.000000 0.000000 0.000000 -24.441166 1.406587 9.222749 0.090225 1.916732 5.276270 -0.331194 -14.017502 -5.210598 0.293577 -3.484249 -9.630026 0.000000 0.000000 0.000000 14.484831 1.605877 -30.004030 -4.305419 -12.550356 37.716605 0.126616 -10.349965 -12.509261 -1.531675 -7.812102 22.145685 -5.763770 -0.009361 11.897084 0.146690 -0.795131 1.047369 3.540510 -0.267716 -5.498143 -9.497951 -4.734592 -19.441577 8.374659 -6.351880 25.892262 3.727349 -2.776549 12.385173 0.000000 0.000000 0.000000 7.339779 0.167857 -25.926671 17.847554 -27.961542 4.477539 20.901819 12.573651 -24.589743 0.000000 0.000000 0.000000 -7.125000 0.000000 0.000000 -9.298691 55.836311 2.487571 0.000000 0.000000 0.000000 -2.556406 7.416884 15.068428 -17.429124 -27.419976 -4.283075 -16.201752 2.273363 -9.404771 0.000000 0.000000 0.000000 7.125000 0.000000 0.000000 7.685186 20.235355 4.593826
7.468154 17.827601 11.108999 369.213927 -55.344466 -8.773841 0.000000 0.000000 0.000000 -24.569209 2.295365 15.602421 0.000000 0.000000 0.000000 -0.155206 -10.054483 -4.063089 0.472740 -4.409652 -12.231988 0.000000 0.000000 0.000000 13.819018 3.704344 -27.919870 -1.698076 -8.206507 23.343057 0.215295 -10.077479 -9.945682 -0.897323 -6.036824 16.891567 -5.942614 -0.275702 11.476198 0.365616 -1.126365 1.265089 3.914488 -0.446754 -4.990820 -9.424349 -4.840786 -19.963637 8.163226 -6.335287 25.102094 3.612059 -2.766395 12.167045 0.000000 0.000000 0.000000 7.945855 -1.681292 -27.016957 18.105775 -28.292404 4.599320 21.313906 11.773185 -24.885437 0.000000 0.000000 0.000000 -7.125000 0.000000 0.000000 -8.995650 56.223567 2.490347 0.000000 0.000000 0.000000 -2.068629 7.930673 13.258466 -16.771086 -26.554960 -3.984463 -15.584507 2.448518 -9.693235 0.000000 0.000000 0.000000 7.125000 0.000000 0.000000 8.120051 19.973328 4.906988
6.403637 17.790224 11.541667 369.193262 -58.957935 -9.021330 0.000000 0.000000 0.000000 -23.334654 4.246920 19.589496 0.000000 0.000000 0.000000 -0.141388 -8.533308 -2.580164 1.618226 -8.014337 -22.761295 0.000000 0.000000 0.000000 17.330763 0.925677 -27.122169 -1.935926 -8.731021 24.957595 0.106284 -6.845961 -6.440608 -0.294792 -3.488876 9.643143 -5.403447 0.214278 10.974009 0.427263 -0.375384 1.149427 3.554639 -0.085704 -4.918328 -9.240329 -4.475972 -19.882869 7.960780 -5.826181 25.119207 3.590733 -2.551854 12.087934 0.000000 0.000000 0.000000 7.702807 -1.036441 -26.531373 18.926841 -29.327508 4.995020 21.536079 11.964449 -24.555635 0.000000 0.000000 0.000000 -7.125000 0.000000 0.000000 -8.618248 55.932111 2.323695 0.000000 0.000000 0.000000 -0.995063 8.769639 11.791935 -15.694400 -25.104477 -3.515290 -15.508730 4.325621 -10.213791 0.000000 0.000000 0.000000 7.125000 0.000000 0.000000 8.164479 19.444177 5.032007
5.139364 17.901333 11.928159 367.923705 -62.026133 -8.683405 0.000000 0.000000 0.000000 -21.681159 2.725325 16.035383 0.755423 5.543448 15.467237 -0.297979 -9.763669 1.868842 1.747227 -8.318383 -23.685484 0.000000 0.000000 0.000000 20.348853 2.460541 -22.162816 -2.058153 -8.986118 25.751930 0.113078 -6.292304 -4.478014 -1.703471 -8.218638 23.380339 -4.429119 0.325849 10.806026 0.546543 -0.098095 0.590571 3.088484 0.058629 -5.441902 -8.686843 -3.770211 -19.714682 7.463323 -4.936494 25.828654 3.472020 -2.181835 12.204606 0.000000 0.000000 0.000000 6.440754 2.714522 -24.788544 19.578485 -30.131164 5.318127 21.624743 11.927959 -24.080788 0.000000 0.000000 0.000000 -7.125000 0.000000 0.000000 -8.325915 55.462520 2.149003 0.000000 0.000000 0.000000 -0.187789 10.903342 13.524597 -15.953938 -25.458111 -3.626159 -16.024149 2.944764 -7.795767 0.000000 0.000000 0.000000 7.125000 0.000000 0.000000 7.849624 21.900050 4.395788
3.936843 17.986992 12.288935 364.926486 -65.815033 -7.245197 0.000000 0.000000 0.000000 -18.742587 -0.313581 7.090022 3.832694 11.930224 35.491181 0.349980 -13.003401 22.248614 0.196595 -2.782907 -7.680024 0.000000 0.000000 0.000000 23.705129 1.140014 -16.711259 -2.129245 -9.130216 26.203464 -0.113794 -2.159591 -7.547617 -1.478904 -7.682890 21.755451 -2.272330 0.747074 11.063716 0.908612 0.739192 0.585706 2.118992 0.423663 -5.638124 -9.052290 -3.470183 -19.962775 7.331720 -4.325686 25.954589 3.588376 -1.960569 12.249145 0.000000 0.000000 0.000000 4.551184 5.576686 -23.815670 19.198639 -29.664723 5.128851 20.941864 12.399648 -24.313466 0.000000 0.000000 0.000000 -7.125000 0.000000 0.000000 -9.137201 55.562262 2.383009 0.000000 0.000000 0.000000 -0.605290 10.757783 15.025717 -16.087381 -25.638863 -3.683731 -15.718860 3.115705 -8.558188 0.000000 0.000000 0.000000 7.125000 0.000000 0.000000 8.049485 21.130682 4.651693
2.885583 18.011734 12.609638 359.123664 -70.106614 -2.917660 0.000000 0.000000 0.000000 -15.051960 -2.140467 -2.987674 7.700139 15.893354 51.473792 -0.280367 -12.563655 13.540253 0.151758 -2.494341 -6.874797 0.000000 0.000000 0.000000 27.338956 0.373317 -10.291751 -1.805146 -8.447768 24.082712 -0.229423 0.376386 -8.922153 -1.134033 -6.762850 19.014929 0.261661 1.468351 11.407607 1.363152 2.032737 0.771945 0.955054 0.995531 -5.631012 -8.286000 -3.108690 -19.554020 7.047501 -4.023124 25.900104 3.396210 -1.797206 12.087846 0.000000 0.000000 0.000000 3.299868 6.103121 -24.923086 18.091553 -28.274161 4.592550 20.008578 15.187954 -23.967682 0.000000 0.000000 0.000000 -7.125000 0.000000 0.000000 -9.957619 55.022487 2.469143 0.000000 0.000000 0.000000 -1.543089 8.188690 16.139213 -16.579375 -26.299900 -3.899133 -15.134133 4.816064 -10.355564 0.000000 0.000000 0.000000 7.125000 0.000000 0.000000 8.427094 19.321260 5.220661
